<svg width="383" height="112" viewBox="0 0 383 112" fill="none" xmlns="http://www.w3.org/2000/svg">
<path d="M119.5 90.9166L104 111.583L88.5 90.9166H119.5Z" fill="#013440" stroke="#013440" stroke-width="0.5"/>
<path d="M31.5 90.9166L16 111.583L0.5 90.9166H31.5Z" fill="#026873" stroke="#026873" stroke-width="0.5"/>
<path d="M40.3278 0H64.3246L54.6924 26.9181C37.7388 29.8973 24.7718 46.3 24.7718 66.088C24.7718 75.0147 27.5469 84.0395 32 90.6667H0L29.1297 8.47488C30.9612 3.35635 35.3961 0 40.3278 0Z" fill="#026873"/>
<path d="M64.3242 0L57.5546 18.918L55.5149 0H64.3242Z" fill="black" fill-opacity="0.3"/>
<path d="M79.5117 0H55.5149L65.1066 26.8045C82.3976 29.4539 95.7178 46.032 95.7178 66.088C95.7178 75.0147 92.453 84.0395 87.9999 90.6667H120L90.7098 8.47491C88.8784 3.35635 84.4434 0 79.5117 0Z" fill="#013440"/>
<path d="M36.0481 87.289C31.9473 81.449 29.502 74.0877 29.502 66.0877C29.502 47.108 43.2662 31.7221 60.2452 31.7221C77.2243 31.7221 90.9886 47.108 90.9886 66.0877C90.9886 74.0877 88.5433 81.449 84.4425 87.289C77.7105 82.2773 69.3297 79.3053 60.2452 79.3053C51.1609 79.3053 42.7801 82.2773 36.0481 87.289Z" fill="#038C7F"/>
<circle cx="60.0001" cy="57.3333" r="17.3333" fill="white"/>
<path fill-rule="evenodd" clip-rule="evenodd" d="M60.0001 74.6667C69.573 74.6667 77.3334 66.9063 77.3334 57.3333C77.3334 47.7604 69.573 40 60.0001 40C50.4271 40 42.6667 47.7604 42.6667 57.3333C42.6667 66.9063 50.4271 74.6667 60.0001 74.6667ZM65.4075 48.0746C65.6707 47.1396 64.7634 46.5868 63.9348 47.1771L52.3674 55.4176C51.4688 56.0578 51.6102 57.3333 52.5798 57.3333H55.6258V57.3097H61.5623L56.7251 59.0165L54.5927 66.5921C54.3295 67.5271 55.2367 68.0799 56.0654 67.4895L67.6327 59.2491C68.5314 58.6089 68.3899 57.3333 67.4204 57.3333H62.8012L65.4075 48.0746Z" fill="#038C7F"/>
<path d="M142.265 68.45C140.865 68.45 139.55 68.205 138.32 67.715C137.1 67.215 136.025 66.485 135.095 65.525C134.175 64.565 133.455 63.39 132.935 62C132.415 60.6 132.155 59 132.155 57.2C132.155 54.84 132.595 52.825 133.475 51.155C134.355 49.475 135.56 48.19 137.09 47.3C138.62 46.4 140.345 45.95 142.265 45.95C144.925 45.95 147.03 46.57 148.58 47.81C150.14 49.04 151.195 50.77 151.745 53L148.055 53.585C147.645 52.305 146.975 51.285 146.045 50.525C145.115 49.755 143.93 49.37 142.49 49.37C141.04 49.35 139.835 49.665 138.875 50.315C137.915 50.965 137.19 51.88 136.7 53.06C136.22 54.24 135.98 55.62 135.98 57.2C135.98 58.78 136.22 60.155 136.7 61.325C137.18 62.485 137.9 63.39 138.86 64.04C139.83 64.69 141.04 65.025 142.49 65.045C143.58 65.055 144.535 64.86 145.355 64.46C146.175 64.05 146.845 63.435 147.365 62.615C147.885 61.785 148.235 60.75 148.415 59.51H144.605V56.675H152.255C152.275 56.835 152.29 57.07 152.3 57.38C152.31 57.69 152.315 57.875 152.315 57.935C152.315 59.975 151.91 61.79 151.1 63.38C150.3 64.96 149.15 66.2 147.65 67.1C146.15 68 144.355 68.45 142.265 68.45ZM165.242 68L172.052 46.4H177.347L184.157 68H180.437L174.257 48.62H175.067L168.962 68H165.242ZM169.037 63.32V59.945H180.377V63.32H169.037ZM198.869 68V46.4H202.529L212.549 61.625V46.4H216.209V68H212.549L202.529 52.775V68H198.869ZM241.312 68.45C239.912 68.45 238.597 68.205 237.367 67.715C236.147 67.215 235.072 66.485 234.142 65.525C233.222 64.565 232.502 63.39 231.982 62C231.462 60.6 231.202 59 231.202 57.2C231.202 54.84 231.642 52.825 232.522 51.155C233.402 49.475 234.607 48.19 236.137 47.3C237.667 46.4 239.392 45.95 241.312 45.95C243.972 45.95 246.077 46.57 247.627 47.81C249.187 49.04 250.242 50.77 250.792 53L247.102 53.585C246.692 52.305 246.022 51.285 245.092 50.525C244.162 49.755 242.977 49.37 241.537 49.37C240.087 49.35 238.882 49.665 237.922 50.315C236.962 50.965 236.237 51.88 235.747 53.06C235.267 54.24 235.027 55.62 235.027 57.2C235.027 58.78 235.267 60.155 235.747 61.325C236.227 62.485 236.947 63.39 237.907 64.04C238.877 64.69 240.087 65.025 241.537 65.045C242.627 65.055 243.582 64.86 244.402 64.46C245.222 64.05 245.892 63.435 246.412 62.615C246.932 61.785 247.282 60.75 247.462 59.51H243.652V56.675H251.302C251.322 56.835 251.337 57.07 251.347 57.38C251.357 57.69 251.362 57.875 251.362 57.935C251.362 59.975 250.957 61.79 250.147 63.38C249.347 64.96 248.197 66.2 246.697 67.1C245.197 68 243.402 68.45 241.312 68.45ZM264.288 68L271.098 46.4H276.393L283.203 68H279.483L273.303 48.62H274.113L268.008 68H264.288ZM268.083 63.32V59.945H279.423V63.32H268.083ZM297.915 68V46.4H306.48C307.94 46.4 309.135 46.695 310.065 47.285C311.005 47.865 311.7 48.61 312.15 49.52C312.61 50.43 312.84 51.37 312.84 52.34C312.84 53.53 312.555 54.54 311.985 55.37C311.425 56.2 310.66 56.76 309.69 57.05V56.3C311.05 56.61 312.08 57.255 312.78 58.235C313.49 59.215 313.845 60.33 313.845 61.58C313.845 62.86 313.6 63.98 313.11 64.94C312.62 65.9 311.89 66.65 310.92 67.19C309.96 67.73 308.77 68 307.35 68H297.915ZM301.575 64.595H306.9C307.53 64.595 308.095 64.47 308.595 64.22C309.095 63.96 309.485 63.6 309.765 63.14C310.055 62.67 310.2 62.115 310.2 61.475C310.2 60.895 310.075 60.375 309.825 59.915C309.575 59.455 309.21 59.09 308.73 58.82C308.25 58.54 307.675 58.4 307.005 58.4H301.575V64.595ZM301.575 55.025H306.435C306.955 55.025 307.42 54.925 307.83 54.725C308.24 54.525 308.565 54.23 308.805 53.84C309.045 53.45 309.165 52.97 309.165 52.4C309.165 51.65 308.925 51.025 308.445 50.525C307.965 50.025 307.295 49.775 306.435 49.775H301.575V55.025ZM337.976 68.45C335.816 68.45 333.966 67.98 332.426 67.04C330.886 66.09 329.701 64.77 328.871 63.08C328.051 61.39 327.641 59.43 327.641 57.2C327.641 54.97 328.051 53.01 328.871 51.32C329.701 49.63 330.886 48.315 332.426 47.375C333.966 46.425 335.816 45.95 337.976 45.95C340.136 45.95 341.986 46.425 343.526 47.375C345.076 48.315 346.261 49.63 347.081 51.32C347.911 53.01 348.326 54.97 348.326 57.2C348.326 59.43 347.911 61.39 347.081 63.08C346.261 64.77 345.076 66.09 343.526 67.04C341.986 67.98 340.136 68.45 337.976 68.45ZM337.976 65.045C339.426 65.055 340.631 64.735 341.591 64.085C342.561 63.435 343.286 62.52 343.766 61.34C344.256 60.16 344.501 58.78 344.501 57.2C344.501 55.62 344.256 54.25 343.766 53.09C343.286 51.92 342.561 51.01 341.591 50.36C340.631 49.71 339.426 49.375 337.976 49.355C336.526 49.345 335.321 49.665 334.361 50.315C333.401 50.965 332.676 51.88 332.186 53.06C331.706 54.24 331.466 55.62 331.466 57.2C331.466 58.78 331.706 60.155 332.186 61.325C332.666 62.485 333.386 63.39 334.346 64.04C335.316 64.69 336.526 65.025 337.976 65.045ZM363.312 68V46.4H366.972L376.992 61.625V46.4H380.652V68H376.992L366.972 52.775V68H363.312Z" fill="#038C7F"/>
</svg>
